<?xml version="1.0" encoding="UTF-8"?><svg id="Layer_2" xmlns="http://www.w3.org/2000/svg" viewBox="0 0 221.56 80.26"><defs><style>.cls-1{fill:#0066a6;}.cls-2{fill:#f15a22;}</style></defs><g id="Layer_1-2"><g><g><rect class="cls-1" x="204.33" width="17.05" height="42.81"/><polygon class="cls-1" points="65.92 0 65.92 9.01 85.85 9.01 85.85 42.81 102.95 42.81 102.95 9.01 122.89 9.01 122.89 0 65.92 0"/><path class="cls-1" d="M55.83,9.01V0H.15V34.61c0,4.52,3.66,8.18,8.18,8.18H55.83v-9.01H17.25v-7.88H55.83v-9.01H17.25v-7.88H55.83Z"/><g><polygon class="cls-2" points="174.3 22.84 154.18 22.84 177.26 45.67 197.39 45.67 174.3 22.84"/><path class="cls-2" d="M183.23,0h-51.77V42.81h17.1V9.01h25.75v13.83h17.1V8.17c0-4.52-3.66-8.17-8.18-8.17Z"/></g></g><path class="cls-1" d="M.16,53.56H5.62v1.66H2.02v2.59h3.3v1.66H2.02v2.95h3.63v1.66H.16v-10.51Z"/><path class="cls-1" d="M7.41,52.78h1.78v11.3h-1.78v-11.3Z"/><path class="cls-1" d="M12.32,59.44c.08-1.04,.58-1.82,1.58-1.82s1.39,.84,1.44,1.82h-3.02Zm4.21,2.56c-.66,.42-1.4,.78-2.27,.78-1.1,0-1.87-.71-1.95-1.96h4.72c0-2.71-.72-4.69-3.25-4.69-2.12,0-3.17,1.85-3.17,4.1,0,2.55,1.31,4.02,3.57,4.02,.95,0,1.7-.21,2.35-.62v-1.64Z"/><path class="cls-1" d="M22.85,57.99c-.32-.17-.66-.29-1.21-.29-1.1,0-1.8,.99-1.8,2.46s.6,2.53,1.84,2.53c.5,0,1.06-.21,1.37-.36l.08,1.67c-.52,.18-1.05,.26-1.78,.26-2.24,0-3.37-1.73-3.37-4.1s1.17-4.02,3.3-4.02c.71,0,1.23,.09,1.72,.26l-.16,1.6Z"/><path class="cls-1" d="M24.9,57.79h-1.31v-1.48h1.31v-1.55l1.78-.65v2.2h1.58v1.48h-1.58v3.62c0,.66,.16,1.28,.83,1.28,.32,0,.62-.08,.81-.21l.05,1.6c-.37,.12-.78,.18-1.31,.18-1.39,0-2.16-.98-2.16-2.52v-3.95Z"/><path class="cls-1" d="M29.51,56.32h1.58v1.76h.03c.08-.72,.81-1.94,1.87-1.94,.17,0,.36,0,.54,.06v2.03c-.16-.11-.48-.17-.8-.17-1.45,0-1.45,2.05-1.45,3.16v2.85h-1.78v-7.76Z"/><path class="cls-1" d="M35.81,60.01c0-1.16,.56-2.3,1.71-2.3s1.72,1.11,1.72,2.3c0,1.3-.36,2.68-1.72,2.68s-1.71-1.4-1.71-2.68Zm-1.86,.24c0,2.23,1.31,4.01,3.57,4.01s3.58-1.78,3.58-4.01c0-2.56-1.55-4.11-3.58-4.11s-3.57,1.55-3.57,4.11Z"/><path class="cls-1" d="M42.49,56.32h1.68v1.05h.03c.56-.89,1.31-1.24,2.24-1.24,1.62,0,2.32,1.3,2.32,3.04v4.9h-1.78v-4.14c0-.95-.01-2.23-1.15-2.23-1.29,0-1.56,1.58-1.56,2.58v3.8h-1.78v-7.76Z"/><path class="cls-1" d="M50.63,56.32h1.78v7.76h-1.78v-7.76Zm0-3.34h1.78v1.93h-1.78v-1.93Z"/><path class="cls-1" d="M58.7,57.99c-.32-.17-.66-.29-1.21-.29-1.1,0-1.8,.99-1.8,2.46s.6,2.53,1.84,2.53c.5,0,1.06-.21,1.37-.36l.08,1.67c-.52,.18-1.05,.26-1.78,.26-2.24,0-3.37-1.73-3.37-4.1s1.17-4.02,3.3-4.02c.71,0,1.23,.09,1.72,.26l-.16,1.6Z"/><path class="cls-1" d="M64.22,57.94c-.54-.21-.94-.33-1.59-.33-.48,0-1.05,.2-1.05,.86,0,1.24,3.09,.45,3.09,3.25,0,1.81-1.42,2.53-2.86,2.53-.68,0-1.37-.14-2.02-.33l.11-1.66c.56,.32,1.14,.51,1.75,.51,.45,0,1.17-.2,1.17-.95,0-1.52-3.09-.48-3.09-3.28,0-1.67,1.29-2.41,2.68-2.41,.84,0,1.38,.15,1.94,.29l-.12,1.52Z"/><path class="cls-1" d="M70.99,61.83c0-1.19,1.18-1.34,1.98-1.34h.77c0,.6-.08,1.16-.37,1.6-.28,.42-.7,.69-1.25,.69-.64,0-1.13-.29-1.13-.95Zm-.9-3.37c.6-.51,1.35-.84,2.11-.84,1.05,0,1.54,.42,1.54,1.67h-.98c-.74,0-1.62,.08-2.29,.45-.68,.38-1.17,1.05-1.17,2.21,0,1.48,1.18,2.3,2.39,2.3,.81,0,1.7-.48,2.11-1.34h.03c.01,.24,.01,.75,.08,1.16h1.56c-.04-.6-.07-1.14-.08-1.73-.01-.57-.03-1.16-.03-1.94v-.99c0-2.29-.86-3.27-2.94-3.27-.75,0-1.68,.23-2.37,.59l.05,1.73Z"/><path class="cls-1" d="M77.1,56.32h1.68v1.05h.03c.56-.89,1.31-1.24,2.24-1.24,1.62,0,2.32,1.3,2.32,3.04v4.9h-1.78v-4.14c0-.95-.01-2.23-1.15-2.23-1.29,0-1.56,1.58-1.56,2.58v3.8h-1.78v-7.76Z"/><path class="cls-1" d="M86.62,60.17c0-1.04,.32-2.47,1.47-2.47s1.59,1.39,1.59,2.47-.38,2.52-1.56,2.52-1.5-1.45-1.5-2.52Zm3.13,3.9h1.72v-11.3h-1.78v4.44h-.03c-.53-.74-1.15-1.08-2.04-1.08-2.09,0-2.86,1.9-2.86,4.04s.77,4.08,2.86,4.08c.83,0,1.56-.3,2.09-1.05h.03v.87Z"/><path class="cls-1" d="M98.83,55.22h-2.65v-1.66h7.16v1.66h-2.65v8.86h-1.86v-8.86Z"/><path class="cls-1" d="M104.15,59.44c.08-1.04,.58-1.82,1.58-1.82s1.39,.84,1.45,1.82h-3.02Zm4.22,2.56c-.66,.42-1.41,.78-2.27,.78-1.1,0-1.87-.71-1.95-1.96h4.72c0-2.71-.72-4.69-3.25-4.69-2.12,0-3.17,1.85-3.17,4.1,0,2.55,1.31,4.02,3.57,4.02,.95,0,1.7-.21,2.35-.62v-1.64Z"/><path class="cls-1" d="M110.3,52.78h1.78v11.3h-1.78v-11.3Z"/><path class="cls-1" d="M115.2,59.44c.08-1.04,.58-1.82,1.58-1.82s1.39,.84,1.45,1.82h-3.02Zm4.22,2.56c-.66,.42-1.41,.78-2.27,.78-1.1,0-1.87-.71-1.95-1.96h4.72c0-2.71-.72-4.69-3.25-4.69-2.12,0-3.17,1.85-3.17,4.1,0,2.55,1.31,4.02,3.57,4.02,.96,0,1.7-.21,2.35-.62v-1.64Z"/><path class="cls-1" d="M125.74,57.99c-.32-.17-.66-.29-1.21-.29-1.1,0-1.8,.99-1.8,2.46s.6,2.53,1.84,2.53c.5,0,1.06-.21,1.37-.36l.08,1.67c-.52,.18-1.05,.26-1.78,.26-2.24,0-3.37-1.73-3.37-4.1s1.17-4.02,3.3-4.02c.72,0,1.23,.09,1.72,.26l-.16,1.6Z"/><path class="cls-1" d="M128.62,60.01c0-1.16,.56-2.3,1.71-2.3s1.72,1.11,1.72,2.3c0,1.3-.36,2.68-1.72,2.68s-1.71-1.4-1.71-2.68Zm-1.86,.24c0,2.23,1.31,4.01,3.57,4.01s3.58-1.78,3.58-4.01c0-2.56-1.55-4.11-3.58-4.11s-3.57,1.55-3.57,4.11Z"/><path class="cls-1" d="M135.27,56.32h1.66v1.08h.03c.56-.95,1.37-1.27,2.03-1.27,.95,0,1.63,.41,2.01,1.37,.41-.93,1.3-1.37,2.13-1.37,1.68,0,2.16,1.31,2.16,3.04v4.9h-1.78v-4.62c0-.72,0-1.75-1.02-1.75-1.18,0-1.33,1.6-1.33,2.61v3.77h-1.78v-4.62c0-.72,0-1.75-1.02-1.75-1.18,0-1.33,1.6-1.33,2.61v3.77h-1.78v-7.76Z"/><path class="cls-1" d="M147.06,56.32h1.66v1.08h.03c.56-.95,1.37-1.27,2.03-1.27,.95,0,1.63,.41,2.01,1.37,.41-.93,1.3-1.37,2.13-1.37,1.68,0,2.16,1.31,2.16,3.04v4.9h-1.78v-4.62c0-.72,0-1.75-1.02-1.75-1.18,0-1.33,1.6-1.33,2.61v3.77h-1.78v-4.62c0-.72,0-1.75-1.02-1.75-1.18,0-1.33,1.6-1.33,2.61v3.77h-1.78v-7.76Z"/><path class="cls-1" d="M165.14,64.07h-1.68v-1.05h-.03c-.54,.75-1.31,1.24-2.24,1.24-1.62,0-2.32-1.3-2.32-3.04v-4.9h1.78v4.14c0,.95,.01,2.23,1.15,2.23,1.29,0,1.56-1.58,1.56-2.58v-3.8h1.78v7.76Z"/><path class="cls-1" d="M166.97,56.32h1.68v1.05h.03c.56-.89,1.31-1.24,2.24-1.24,1.62,0,2.32,1.3,2.32,3.04v4.9h-1.78v-4.14c0-.95-.01-2.23-1.15-2.23-1.29,0-1.56,1.58-1.56,2.58v3.8h-1.78v-7.76Z"/><path class="cls-1" d="M175.11,56.32h1.78v7.76h-1.78v-7.76Zm0-3.34h1.78v1.93h-1.78v-1.93Z"/><path class="cls-1" d="M183.18,57.99c-.32-.17-.66-.29-1.21-.29-1.1,0-1.8,.99-1.8,2.46s.6,2.53,1.84,2.53c.5,0,1.06-.21,1.37-.36l.08,1.67c-.52,.18-1.05,.26-1.78,.26-2.24,0-3.37-1.73-3.37-4.1s1.17-4.02,3.3-4.02c.72,0,1.23,.09,1.72,.26l-.16,1.6Z"/><path class="cls-1" d="M185.9,61.83c0-1.19,1.18-1.34,1.97-1.34h.77c0,.6-.08,1.16-.37,1.6-.28,.42-.7,.69-1.25,.69-.64,0-1.13-.29-1.13-.95Zm-.9-3.37c.6-.51,1.35-.84,2.11-.84,1.05,0,1.54,.42,1.54,1.67h-.98c-.74,0-1.62,.08-2.29,.45-.68,.38-1.17,1.05-1.17,2.21,0,1.48,1.18,2.3,2.39,2.3,.81,0,1.7-.48,2.11-1.34h.03c.01,.24,.01,.75,.08,1.16h1.56c-.04-.6-.07-1.14-.08-1.73-.01-.57-.03-1.16-.03-1.94v-.99c0-2.29-.86-3.27-2.94-3.27-.76,0-1.68,.23-2.37,.59l.05,1.73Z"/><path class="cls-1" d="M192.59,57.79h-1.31v-1.48h1.31v-1.55l1.78-.65v2.2h1.58v1.48h-1.58v3.62c0,.66,.16,1.28,.83,1.28,.32,0,.62-.08,.81-.21l.05,1.6c-.37,.12-.78,.18-1.31,.18-1.39,0-2.16-.98-2.16-2.52v-3.95Z"/><path class="cls-1" d="M197.21,56.32h1.78v7.76h-1.78v-7.76Zm0-3.34h1.78v1.93h-1.78v-1.93Z"/><path class="cls-1" d="M202.27,60.01c0-1.16,.56-2.3,1.71-2.3s1.72,1.11,1.72,2.3c0,1.3-.36,2.68-1.72,2.68s-1.71-1.4-1.71-2.68Zm-1.86,.24c0,2.23,1.31,4.01,3.57,4.01s3.58-1.78,3.58-4.01c0-2.56-1.55-4.11-3.58-4.11s-3.57,1.55-3.57,4.11Z"/><path class="cls-1" d="M208.95,56.32h1.68v1.05h.03c.56-.89,1.31-1.24,2.24-1.24,1.62,0,2.32,1.3,2.32,3.04v4.9h-1.78v-4.14c0-.95-.01-2.23-1.15-2.23-1.29,0-1.56,1.58-1.56,2.58v3.8h-1.78v-7.76Z"/><path class="cls-1" d="M221.11,57.94c-.54-.21-.94-.33-1.59-.33-.48,0-1.05,.2-1.05,.86,0,1.24,3.09,.45,3.09,3.25,0,1.81-1.42,2.53-2.86,2.53-.68,0-1.37-.14-2.01-.33l.11-1.66c.56,.32,1.14,.51,1.75,.51,.45,0,1.17-.2,1.17-.95,0-1.52-3.09-.48-3.09-3.28,0-1.67,1.29-2.41,2.68-2.41,.84,0,1.38,.15,1.94,.29l-.12,1.52Z"/><path class="cls-1" d="M1.86,71.22h.61c.93,0,1.96,.11,1.96,1.37s-1.05,1.46-1.96,1.46h-.61v-2.83Zm-1.86,8.86H1.86v-4.37h.6c.78,0,1.02,.3,1.29,1.08l1.11,3.28h2.07l-1.48-4.11c-.19-.47-.48-1.04-.98-1.08v-.03c1.18-.18,1.91-1.21,1.91-2.44,0-2.92-2.37-2.85-4.36-2.85H0v10.51Z"/><path class="cls-1" d="M9.36,75.44c.08-1.04,.58-1.82,1.58-1.82s1.39,.84,1.45,1.82h-3.02Zm4.22,2.56c-.66,.42-1.41,.78-2.27,.78-1.1,0-1.87-.71-1.95-1.96h4.72c0-2.71-.72-4.69-3.25-4.69-2.12,0-3.17,1.85-3.17,4.1,0,2.55,1.31,4.02,3.57,4.02,.95,0,1.7-.21,2.35-.62v-1.64Z"/><path class="cls-1" d="M19.53,73.94c-.54-.21-.94-.33-1.59-.33-.48,0-1.05,.2-1.05,.86,0,1.24,3.09,.45,3.09,3.25,0,1.81-1.42,2.53-2.86,2.53-.68,0-1.37-.14-2.02-.33l.11-1.66c.56,.32,1.14,.51,1.75,.51,.45,0,1.17-.2,1.17-.95,0-1.52-3.09-.48-3.09-3.28,0-1.67,1.29-2.41,2.68-2.41,.84,0,1.38,.15,1.94,.29l-.12,1.52Z"/><path class="cls-1" d="M22.62,75.44c.08-1.04,.58-1.82,1.58-1.82s1.39,.84,1.45,1.82h-3.02Zm4.22,2.56c-.66,.42-1.41,.78-2.27,.78-1.1,0-1.87-.71-1.95-1.96h4.72c0-2.71-.72-4.69-3.25-4.69-2.12,0-3.17,1.85-3.17,4.1,0,2.55,1.31,4.02,3.57,4.02,.95,0,1.7-.21,2.35-.62v-1.64Z"/><path class="cls-1" d="M29.99,77.83c0-1.19,1.18-1.34,1.98-1.34h.77c0,.6-.08,1.16-.37,1.6-.28,.42-.7,.69-1.25,.69-.64,0-1.13-.29-1.13-.95Zm-.9-3.37c.6-.51,1.35-.84,2.11-.84,1.05,0,1.54,.42,1.54,1.67h-.98c-.74,0-1.62,.08-2.29,.45-.68,.38-1.17,1.05-1.17,2.21,0,1.48,1.18,2.3,2.39,2.3,.81,0,1.7-.48,2.11-1.34h.03c.01,.24,.01,.75,.08,1.16h1.56c-.04-.6-.07-1.14-.08-1.73-.01-.57-.03-1.16-.03-1.94v-.99c0-2.29-.86-3.27-2.94-3.27-.76,0-1.68,.23-2.37,.59l.05,1.73Z"/><path class="cls-1" d="M36.14,72.32h1.58v1.76h.03c.08-.72,.81-1.94,1.87-1.94,.17,0,.36,0,.54,.06v2.03c-.16-.11-.48-.17-.79-.17-1.45,0-1.45,2.05-1.45,3.16v2.85h-1.78v-7.76Z"/><path class="cls-1" d="M45.45,73.99c-.32-.17-.66-.29-1.21-.29-1.1,0-1.8,.99-1.8,2.46s.6,2.53,1.84,2.53c.5,0,1.06-.21,1.37-.36l.08,1.67c-.52,.18-1.05,.26-1.78,.26-2.24,0-3.37-1.73-3.37-4.1s1.17-4.02,3.3-4.02c.72,0,1.23,.09,1.72,.26l-.16,1.6Z"/><path class="cls-1" d="M46.9,68.78h1.78v4.59h.03c.45-.75,1.22-1.24,2.15-1.24,1.62,0,2.32,1.3,2.32,3.04v4.9h-1.78v-4.14c0-.95-.01-2.23-1.15-2.23-1.29,0-1.56,1.58-1.56,2.58v3.8h-1.78v-11.3Z"/><path class="cls-1" d="M58.69,69.56h1.86v10.51h-1.86v-10.51Z"/><path class="cls-1" d="M62.37,72.32h1.68v1.05h.03c.56-.89,1.31-1.24,2.24-1.24,1.62,0,2.32,1.3,2.32,3.04v4.9h-1.78v-4.14c0-.95-.01-2.23-1.15-2.23-1.29,0-1.56,1.58-1.56,2.58v3.8h-1.78v-7.76Z"/><path class="cls-1" d="M74.53,73.94c-.54-.21-.94-.33-1.59-.33-.48,0-1.05,.2-1.05,.86,0,1.24,3.09,.45,3.09,3.25,0,1.81-1.42,2.53-2.86,2.53-.68,0-1.37-.14-2.01-.33l.11-1.66c.56,.32,1.14,.51,1.75,.51,.45,0,1.17-.2,1.17-.95,0-1.52-3.09-.48-3.09-3.28,0-1.67,1.29-2.41,2.68-2.41,.83,0,1.38,.15,1.94,.29l-.12,1.52Z"/><path class="cls-1" d="M76.94,73.79h-1.31v-1.48h1.31v-1.55l1.78-.65v2.2h1.58v1.48h-1.58v3.62c0,.66,.16,1.28,.83,1.28,.32,0,.62-.08,.81-.21l.05,1.6c-.37,.12-.78,.18-1.31,.18-1.39,0-2.16-.98-2.16-2.52v-3.95Z"/><path class="cls-1" d="M81.56,72.32h1.78v7.76h-1.78v-7.76Zm0-3.34h1.78v1.93h-1.78v-1.93Z"/><path class="cls-1" d="M85.78,73.79h-1.31v-1.48h1.31v-1.55l1.78-.65v2.2h1.58v1.48h-1.58v3.62c0,.66,.16,1.28,.83,1.28,.32,0,.62-.08,.81-.21l.05,1.6c-.37,.12-.78,.18-1.31,.18-1.39,0-2.16-.98-2.16-2.52v-3.95Z"/><path class="cls-1" d="M96.63,80.07h-1.68v-1.05h-.03c-.54,.75-1.31,1.24-2.24,1.24-1.62,0-2.32-1.3-2.32-3.04v-4.9h1.78v4.14c0,.95,.01,2.23,1.15,2.23,1.29,0,1.56-1.58,1.56-2.58v-3.8h1.78v7.76Z"/><path class="cls-1" d="M99.04,73.79h-1.31v-1.48h1.31v-1.55l1.78-.65v2.2h1.58v1.48h-1.58v3.62c0,.66,.16,1.28,.83,1.28,.32,0,.62-.08,.81-.21l.05,1.6c-.37,.12-.78,.18-1.31,.18-1.39,0-2.16-.98-2.16-2.52v-3.95Z"/><path class="cls-1" d="M104.87,75.44c.08-1.04,.58-1.82,1.58-1.82s1.39,.84,1.44,1.82h-3.02Zm4.21,2.56c-.66,.42-1.41,.78-2.27,.78-1.1,0-1.87-.71-1.95-1.96h4.72c0-2.71-.72-4.69-3.25-4.69-2.12,0-3.17,1.85-3.17,4.1,0,2.55,1.31,4.02,3.57,4.02,.95,0,1.7-.21,2.35-.62v-1.64Z"/></g></g></svg>