<?xml version="1.0" encoding="UTF-8"?><svg id="Layer_2" xmlns="http://www.w3.org/2000/svg" viewBox="0 0 60.55 60.55"><defs><style>.cls-1{fill:#231f20;}</style></defs><g id="Layer_1-2"><path class="cls-1" d="M0,60.55H60.55V0H0V60.55Zm58.78-1.69H1.77l5.8-5.87V7.57L1.77,1.7H58.78l-5.8,5.87V52.99l5.8,5.87Zm-14.11-18.48c.11,.31,.11,.42,.04,.46-.07,.04-.19,.03-.36-.24,0,0-.01-.02-.02-.03,0,0,0-.01-.01-.02-1.14-1.88-2.02-4.34-2.19-5.13-.22-.99-.61-2.24-.62-5.74,0-4.2-1.15-4.7-4.44-4.97-4.11-.34-4.52,2.16-4.67,2.92-.49,2.46-.82,4.61-.37,5.2,.61,.81,.79,1.32,1.43,2.59,1.1,2.2,2.77,8.53,3.66,12.07,.09,.35,.12,.47,.05,.51-.07,.04-.2,.05-.37-.35-1.2-2.88-3.23-7.58-3.93-9.15-1.01-2.25-2.18-2.76-2.58-2.76h0c-.41,0-1.58,.52-2.58,2.76-.7,1.57-2.73,6.27-3.93,9.15-.17,.4-.3,.39-.37,.35-.07-.04-.04-.15,.05-.51,.89-3.53,2.55-9.86,3.66-12.07,.63-1.27,.82-1.78,1.43-2.59,.45-.59,.12-2.74-.37-5.2-.15-.76-.56-3.26-4.67-2.92-3.29,.27-4.43,.78-4.44,4.97,0,3.5-.4,4.75-.62,5.74-.17,.79-1.05,3.25-2.19,5.13,0,0,0,.01-.01,.02,0,.01-.01,.02-.02,.03-.17,.27-.29,.28-.36,.24-.07-.04-.07-.15,.04-.46,.45-1.27,1.14-3.79,1.14-6.29,0-1.88-.2-8.31,.02-9.57,.22-1.26-.14-3.1,3.39-4.12,0,0,2.12-.62,4.29-.98,.91-.23,2.25-.25,2.72-1.22,.68-1.42,.87-3.84,2-5.19,.11-.13,.3-.33,.42-.61,.17-.38,.38-.44,.42-.44s.25,.07,.42,.44c.12,.28,.31,.48,.42,.61,1.13,1.36,1.32,3.77,2,5.19,.47,.98,1.81,1,2.72,1.22,2.17,.36,4.29,.98,4.29,.98,3.53,1.02,3.17,2.86,3.39,4.12,.22,1.25,.02,7.69,.02,9.57,0,2.5,.69,5.02,1.14,6.29Z"/></g></svg>