<?xml version="1.0" encoding="UTF-8"?><svg id="Layer_2" xmlns="http://www.w3.org/2000/svg" viewBox="0 0 26.79 38.17"><defs><style>.cls-1{fill:#fdb913;}.cls-2{fill:#2484c6;}.cls-3{fill:#231f20;}</style></defs><g id="Layer_1-2"><path class="cls-2" d="M26.79,13.27c0-.27-.23-.5-.5-.5-.04,0-.08,0-.12,.02-4.44,.92-9.07,1.29-13.8,1.03-1.46-.08-2.89,0-4.31,.11-.11,0-.21,.02-.32,.04-1.13,.15-2.22,.66-3.05,1.48-.75,.73-1.28,1.67-1.5,2.7-.27,1.23-.08,2.5,.44,3.64,.5,1.1,1.31,2.07,2.31,2.75,1.09,.73,2.29,1.3,3.55,1.69,.79,.24,1.5,.39,2.33,.49,.01-.32,.49-.81,.51-1.04,.02-.24-.16-.45-.4-.46-1.3,.05-2.25,.02-3.47-.44-1.25-.47-2.38-1.24-3.28-2.23-.43-.48-.79-1-1.02-1.6-.23-.6-.32-1.25-.29-1.89,.12-2.15,1.79-3.97,3.93-4.28,1.18-.17,2.4,.14,3.36,.84,.5,.37,.93,.84,1.25,1.38,.36,.61,.66,1.25,.86,1.92,.43,1.4,.47,2.94,.29,4.39-.08,.61-.21,1.23-.38,1.82-.1,.34-.22,.68-.35,1-.02,.06-.04,.12-.04,.19,0,.27,.22,.49,.49,.5,.03,0,.09,0,.13,0,3.28,0,6.29-1.18,8.62-3.15,0,0,0,0,0,0,.09-.09,.15-.22,.15-.35,0-.1-.04-.19-.08-.28-.87-1.51-2.77-3.7-2.77-3.7,0,0,2.15,1.93,3.69,2.77,.08,.04,.17,.08,.28,.08,.14,0,.26-.05,.35-.15,0,0,0-.01,.01-.02,1.96-2.33,3.14-5.33,3.14-8.61,0-.04,0-.08,0-.12"/><path class="cls-1" d="M2.54,19.4c-.53-1.17-.86-2.45-.93-3.73-.01-.18,0-.41,0-.58,0-.24-.19-.43-.43-.43s-.75,.44-1.11,.44c.37,2.83,1.64,5.51,3.63,7.57,.97,1.01,2.16,1.79,3.52,2.16,1.17,.32,2.41,.17,3.49-.37,.52-.26,.99-.61,1.39-1.04,.42-.45,.74-1.01,1.04-1.54,.31-.57,.59-1.16,.83-1.76,.26-.64,.48-1.3,.77-1.93,1.09-2.38,2.62-4.56,4.7-6.18,1.01-.79,2.12-1.46,3.3-1.98,.6-.27,1.21-.49,1.84-.68,.3-.09,.6-.17,.91-.24,.27-.08,.42-.38,.33-.64-.76-1.92-1.98-3.66-3.52-5.04-.01-.01-.02-.02-.03-.03-.09-.08-.2-.13-.33-.13-.14,0-.26,.08-.36,.16-2.47,1.72-4.29,4.58-4.29,4.58,0,0,.96-2.45,3.02-5.47,.05-.08,.07-.16,.07-.26,0-.17-.08-.32-.21-.41-.02-.01-.03-.02-.05-.03-1.27-.74-2.66-1.28-4.11-1.57C14.93,.05,13.85-.03,12.78,.01c0,0,0,0-.01,0s0,0-.02,0c-.27,0-.47,.23-.48,.5-.14,3.52,.55,9.57,.55,9.57,0,0-1.23-5.96-2.44-9.27-.07-.2-.25-.35-.48-.35-.03,0-.07,0-.1,0,0,0,0,0-.01,0-.09,.02-.17,.05-.26,.07-2.02,.6-3.89,1.68-5.42,3.13-.26,.25-.52,.51-.76,.78,0,0-.01,.01-.02,.02-.08,.09-.14,.21-.14,.34,0,.14,.05,.28,.15,.36,2.64,2.01,4.59,4.29,4.59,4.29,0,0-2.5-1.85-5.47-3.02-.08-.03-.16-.07-.26-.07-.17,0-.33,.09-.42,.22,0,0,0,0,0,0-.43,.73-.8,1.5-1.08,2.3C.36,9.93,.12,10.99,.01,12.07c-.03,.27-.05,.55,.24,.71,.11,.06,.23,.07,.36,.05,.18-.04,.37-.07,.55-.1,.71-.11,1.43-.17,2.14-.16,1.43,.02,2.87,.28,4.21,.78,1.24,.46,2.37,1.19,3.23,2.21,1.62,1.92,2.48,5.23,.62,7.27-.85,.94-2.11,1.4-3.38,1.28-.65-.06-1.22-.29-1.79-.59-.52-.28-1.01-.6-1.45-.99-.96-.85-1.69-1.96-2.21-3.12"/><path class="cls-3" d="M10.49,33.84c0-.08,.46-.02,.67,.05,.17,.05,.45,.13,.74,.36,.16,.13,.37,.35,.37,.63s-.16,.41-.36,.41c-.11-.02-.22-.08-.32-.18-.1-.1-.17-.29-.46-.62-.32-.37-.64-.58-.64-.64"/><path class="cls-3" d="M10.19,31.18v-.52s.23-.07,.23-.07h0s.05-.03,.05-.06c0-.03-.02-.06-.06-.06h0s-1.04-.16-1.04-.16v.87h-2.28l.07,.16h5.38s.06-.09,0-.16c-.07-.06-.64-.42-.64-.42l-.38,.42h-1.33Z"/><path class="cls-3" d="M9.25,34.05h0s-.93-.33-.93-.33c-.34,.57-.66,1.03-1.16,1.45h0s-.02,.02-.02,.04c0,.03,.02,.05,.05,.05,0,0,.01,0,.02,0h0c.44-.16,1.08-.57,1.83-1.08h.18s.07-.03,.07-.07c0-.03-.02-.05-.05-.06"/><path class="cls-3" d="M19.55,31.92c-.08-.08-.7-.46-.7-.46l-.39,.46h-1.31v-1.26l.23-.07h0s.05-.03,.05-.06c0-.03-.02-.06-.06-.06h0s-1.09-.16-1.09-.16v1.62h-2.09l.07,.16h2.02c-.01,.77-.19,1.37-.46,1.81-.33,.55-.83,1.07-1.64,1.51,0,0,0,0,0,0,0,0,0,0,0,0h0s-.02,.02-.02,.04c0,.03,.02,.05,.05,.05,0,0,.01,0,.02,0h0c.98-.28,1.77-.72,2.17-1.26,.35-.46,.59-.98,.66-1.65,.07,.6,.22,1.07,.45,1.43,.28,.51,.69,.99,1.33,1.4,0,0,.01,0,.01,0,0,0,.02,0,.03,0,.01,0,.02,0,.03-.01,.02-.01,.03-.03,.03-.04,.04-.24,.35-.44,.59-.53-.76-.42-1.31-.93-1.61-1.31-.36-.46-.61-.94-.75-1.46h2.39s.09-.07,0-.16"/><path class="cls-3" d="M22.08,30.51s0,.03,.01,.06c.07,.11,.24,.36,.34,.53,.12,.21,.13,.29,.21,.36,.07,.07,.29,.12,.43,.03,.14-.1,.15-.29,.1-.43-.06-.15-.27-.38-.5-.47-.23-.09-.55-.15-.59-.07"/><path class="cls-3" d="M23.21,30.33s-.02,.04,0,.06c.07,.1,.23,.29,.35,.49,.15,.25,.17,.39,.26,.47,.13,.13,.37,.11,.45,.03,.11-.11,.15-.31,.11-.46-.07-.23-.28-.42-.58-.53-.26-.09-.54-.12-.59-.07"/><path class="cls-3" d="M22.01,31.24c.12,.02,.21,.51,.08,.94-.1,.35-.35,.51-.61,.45-.21-.05-.28-.23-.22-.45,.06-.19,.23-.33,.35-.45,.13-.12,.28-.33,.31-.43,.01-.04,.03-.07,.09-.06"/><path class="cls-3" d="M24.31,33.71v1.34c0,.33-.64,.43-.83,.43-.1,0-.09-.09-.14-.18-.04-.07-.15-.17-.78-.22l-.05-.12h1v-1.25h-2.26l-.07-.16h2.33v-.61l.96,.11c.09,.05-.02,.2-.16,.26v.25h1.22l.43-.47s.52,.39,.6,.47c.08,.08,0,.16,0,.16h-2.26Z"/><path class="cls-3" d="M26.73,31.77s-.02-.05-.03-.06h0s-.83-.42-.83-.42l-.23,.33h-.79s.93-.82,.93-.82l.26-.03s.07-.03,.07-.07c0-.03-.02-.05-.04-.06l-.96-.34c-.15,.38-.33,.85-.56,1.32h-2.44v.16s3.59,.01,3.59,.01l-.24,.76,.1,.03,.92-.72,.22-.02h0s.06-.03,.06-.06"/><path class="cls-3" d="M25.69,32.55h0s-.8-.52-.8-.52l-.23,.25h-2.42l.07,.16h2.3l-.44,.71c.08,.02,.01,.15,.14,.17l1.1-.66,.23,.02h0s0,0,0,0c.04,0,.07-.03,.07-.07,0-.02-.01-.04-.03-.05"/><path class="cls-3" d="M3.14,32.73h1.05v.7h-1.05v-.7Zm0-.8h1.05v.65h-1.05v-.65Zm-.8,.65H1.32v-.65h1.02v.65Zm0,.86H1.32v-.7h1.02v.7Zm1.77,.81c-.39-.17-.7-.39-.92-.66h1v.24l.78-.11v-1.61l.18-.08s.05-.04,.05-.07-.02-.06-.04-.07l-.75-.43-.25,.33h-1.01v-.57h2.33s.08-.09,0-.16c-.08-.07-.59-.37-.59-.37l-.33,.37h-1.41v-.38s.23-.07,.23-.07h0s.05-.03,.05-.06c0-.03-.02-.06-.05-.06h0s-1.02-.16-1.02-.16v.73H.02l.07,.16H2.34v.57H1.29l-.74-.28v2.34l.78-.11v-.12h.79c-.61,.75-1.32,1.22-2.05,1.63H.06s-.03,.02-.03,.04c0,.03,.02,.05,.05,.05,0,0,.01,0,.01,0H.09c.66-.21,1.43-.42,2.25-1.08v1.26l.8-.11v-1.56c.12,.25,.26,.42,.42,.59,.35,.4,.84,.66,1.47,.9,.1-.32,.24-.56,.48-.64l.04-.06c-.51-.1-.99-.14-1.43-.35"/><path class="cls-3" d="M11.03,33.2h-2.4v-1.18h2.4v1.18Zm.98-1.22h0l-.77-.44-.25,.32h-2.38l-.77-.28v2.03l.8-.11v-.13h.77v1.6h-1l.05,.12c.63,.05,.74,.15,.78,.22,.04,.09,.04,.18,.14,.18,.19,0,.83-.1,.83-.43v-1.7h.82v.23l.8-.11v-1.26l.18-.08s.05-.04,.05-.08c0-.03-.02-.06-.04-.07"/><path class="cls-3" d="M2.51,37.09s.01,0,.01-.01v-.04c0-.3,0-.35,0-.41,0-.07-.02-.1-.08-.11-.01,0-.05,0-.07,0-.02,0-.03,0-.03-.02,0-.01,.01-.02,.04-.02h.5s.04,0,.04,.02c0,.01-.01,.02-.03,.02-.01,0-.03,0-.05,0-.05,.01-.06,.04-.07,.11,0,.06,0,1.09,0,1.17,0,.05,.02,.1,.07,.1,.03,0,.07,0,.09,0,.02,0,.03,0,.03,.02,0,.02-.01,.02-.04,.02h-.52s-.04,0-.04-.02c0,0,0-.02,.03-.02,.03,0,.05,0,.07,0,.04,0,.05-.05,.05-.11,.01-.08,.01-.23,.01-.41v-.17s0-.01-.01-.01h-.71s-.01,0-.01,.01v.17c0,.18,0,.33,.01,.42,0,.05,.02,.1,.07,.1,.03,0,.07,0,.09,0,.02,0,.03,0,.03,.02,0,.02-.01,.02-.04,.02h-.52s-.04,0-.04-.02c0,0,0-.02,.03-.02,.03,0,.05,0,.07,0,.04,0,.05-.05,.05-.11,0-.08,0-1.11,0-1.17,0-.07-.02-.1-.08-.11-.02,0-.05,0-.07,0-.02,0-.03,0-.03-.02,0-.01,.01-.02,.04-.02h.5s.04,0,.04,.02c0,.01-.01,.02-.03,.02-.02,0-.03,0-.05,0-.05,.01-.07,.04-.07,.11,0,.06,0,.12,0,.41v.04s0,.01,.01,.01h.71Z"/><path class="cls-3" d="M4.77,36.18c0-.09-.02-.13-.11-.15-.02,0-.06,0-.1,0-.03,0-.04,0-.04-.02,0-.02,.02-.02,.05-.02h.66s.05,0,.05,.02c0,.02-.01,.02-.04,.02s-.04,0-.07,0c-.07,.01-.09,.06-.09,.15,0,.08,0,.91,0,.91,0,.38,.07,.54,.19,.64,.11,.1,.22,.11,.31,.11,.11,0,.24-.04,.34-.14,.14-.14,.14-.38,.14-.65,0,0,0-.79,0-.88,0-.09-.03-.13-.11-.15-.02,0-.06,0-.09,0-.03,0-.04,0-.04-.02,0-.02,.02-.02,.05-.02h.57s.05,0,.05,.02c0,.02-.01,.02-.04,.02-.03,0-.04,0-.07,0-.07,.01-.09,.06-.09,.15,0,.08,0,.83,0,.83,0,.29-.03,.6-.23,.78-.17,.16-.35,.19-.51,.19-.13,0-.37,0-.55-.18-.13-.12-.22-.31-.22-.69,0,0,0-.85,0-.93"/><path class="cls-3" d="M13.35,36.62c0-.07-.02-.1-.06-.11-.02,0-.04,0-.07,0-.02,0-.03,0-.03-.02,0-.01,.01-.01,.04-.01h.47s.04,0,.04,.01c0,.02-.01,.02-.03,.02s-.03,0-.05,0c-.05,0-.07,.04-.07,.11,0,.06,0,1.1,0,1.18,0,.05,.02,.09,.07,.1,.03,0,.07,0,.09,0,.02,0,.03,0,.03,.02,0,.01-.02,.02-.04,.02h-.52s-.04,0-.04-.02c0,0,0-.02,.03-.02,.03,0,.05,0,.07,0,.04,0,.05-.04,.05-.1,.01-.08,.01-1.12,0-1.18"/><path class="cls-3" d="M15.78,37.43c0-.1-.02-.15-.04-.21-.01-.03-.26-.46-.33-.56-.05-.07-.09-.12-.13-.14-.03-.01-.06-.03-.08-.03-.02,0-.03,0-.03-.02,0-.01,.01-.02,.04-.02h.43s.03,0,.03,.02c0,.01-.01,.01-.04,.02-.02,0-.03,.02-.03,.04,0,.02,0,.04,.02,.07,.02,.06,.28,.53,.32,.58,.02-.05,.25-.48,.28-.54,.02-.04,.03-.08,.03-.1,0-.02,0-.04-.04-.05-.02,0-.03,0-.03-.02,0-.01,0-.02,.03-.02h.37s.03,0,.03,.02c0,.01-.02,.02-.03,.02-.02,0-.05,0-.08,.02-.04,.02-.06,.04-.1,.1-.06,.08-.32,.54-.35,.62-.03,.07-.03,.13-.03,.2,0,0,0,.27,0,.35,0,.06,.02,.1,.08,.11,.03,0,.07,0,.09,0,.02,0,.03,0,.03,.01,0,.02-.02,.02-.04,.02h-.52s-.04,0-.04-.02c0,0,.01-.01,.03-.01,.03,0,.05,0,.07,0,.04,0,.05-.05,.06-.11,0-.08,0-.35,0-.35"/><path class="cls-3" d="M18.17,37.24c0-.44-.25-.71-.56-.71-.21,0-.44,.12-.44,.61,0,.41,.23,.73,.58,.73,.13,0,.42-.07,.42-.63m-1.25-.04c0-.33,.21-.77,.77-.77,.46,0,.75,.28,.75,.73s-.3,.8-.77,.8c-.53,0-.75-.42-.75-.76"/><path class="cls-3" d="M22.41,37.24c0-.44-.25-.71-.56-.71-.21,0-.44,.12-.44,.61,0,.41,.23,.73,.58,.73,.13,0,.42-.07,.42-.63m-1.25-.04c0-.33,.21-.77,.77-.77,.46,0,.75,.28,.75,.73s-.3,.8-.77,.8c-.53,0-.75-.42-.75-.76"/><path class="cls-3" d="M24.01,36.5s.05,.01,.08,.02c.03,.02,.08,.07,.13,.14,.07,.1,.31,.53,.33,.56,.03,.06,.04,.1,.04,.21,0,0,0,.27,0,.35,0,.06-.02,.1-.06,.11-.02,0-.04,0-.07,0-.02,0-.03,0-.03,.02,0,.02,.02,.02,.04,.02h.52s.04,0,.04-.02c0,0-.01-.02-.03-.02-.03,0-.07,0-.09,0-.05,0-.07-.05-.08-.11,0-.08,0-.35,0-.35,0-.07,0-.12,.03-.2,.03-.08,.29-.54,.35-.62,.04-.05,.06-.07,.1-.1,.03-.01,.06-.02,.08-.02,.02,0,.04,0,.04-.02,0-.01-.01-.01-.03-.01h-.37s-.03,0-.03,.02,.02,.02,.03,.02c.03,0,.04,.03,.04,.05,0,.02,0,.06-.03,.1-.03,.06-.26,.49-.28,.54-.03-.05-.29-.52-.31-.58-.01-.03-.02-.05-.02-.07s0-.03,.03-.04c.03,0,.04,0,.04-.02,0-.01,0-.02-.03-.02h-.85s-.03,0-.03,.02,0,.02,.02,.02c.02,0,.03,.02,.03,.04,0,.03-.04,.08-.09,.15-.05,.07-.33,.36-.39,.43h0v-.09c0-.3,0-.35,0-.41,0-.07,.02-.1,.07-.11,.02,0,.03,0,.05,0,.02,0,.03,0,.03-.02,0-.01-.01-.02-.04-.02h-.48s-.04,0-.04,.02c0,.01,.01,.02,.03,.02,.03,0,.06,0,.07,0,.06,.01,.08,.05,.08,.11,0,.06,0,1.09,0,1.17,0,.06-.02,.1-.05,.11-.02,0-.04,0-.07,0-.02,0-.03,0-.03,.02,0,.01,.01,.02,.04,.02h.5s.03,0,.03-.02c0,0,0-.02-.02-.02-.02,0-.06,0-.09,0-.05,0-.06-.05-.07-.11,0-.08,0-.24,0-.42v-.18h0l.02,.03c.04,.06,.4,.51,.48,.58,.08,.07,.13,.12,.23,.13,.04,0,.07,0,.13,0h.16s.04,0,.04-.02c0-.01-.01-.02-.02-.02-.02,0-.06,0-.11-.03-.1-.04-.18-.13-.27-.21-.07-.07-.44-.48-.5-.58,.06-.07,.34-.36,.4-.42,.08-.08,.14-.12,.2-.15,.04-.01,.08-.02,.11-.02"/><path class="cls-3" d="M26.52,37.24c0-.44-.25-.71-.56-.71-.21,0-.44,.12-.44,.61,0,.41,.23,.73,.58,.73,.13,0,.42-.07,.42-.63m-1.25-.04c0-.33,.21-.77,.77-.77,.46,0,.75,.28,.75,.73s-.3,.8-.77,.8c-.53,0-.75-.42-.75-.76"/><path class="cls-3" d="M11.6,37.21s-.06,.03-.13,.03c-.05,0-.1,0-.14-.02-.01,0-.02-.01-.02-.03v-.59s0-.02,.02-.03c.02,0,.05,0,.1,0,.11,0,.28,.08,.28,.36,0,.16-.05,.25-.11,.29m.99,.9c-.16-.01-.32-.06-.44-.19-.12-.12-.34-.43-.46-.66,.19-.16,.24-.29,.24-.44,0-.13-.07-.23-.13-.27-.1-.07-.22-.08-.34-.08h-.52s-.04,0-.04,.02,.01,.02,.03,.02c.03,0,.06,0,.07,0,.06,.01,.08,.04,.08,.11,0,.06,0,.12,0,.41v.34c0,.18,0,.33-.01,.41,0,.06-.02,.1-.05,.11-.02,0-.04,0-.07,0-.02,0-.03,0-.03,.02,0,.01,.01,.02,.04,.02h.5s.04,0,.04-.02c0,0,0-.02-.02-.02-.02,0-.06,0-.09,0-.06,0-.07-.05-.07-.11-.01-.08-.01-.24-.01-.42v-.03s0-.02,.02-.02h.16s.03,0,.03,.02c.02,.05,.11,.26,.2,.4,.08,.13,.16,.24,.25,.3,.1,.08,.2,.11,.33,.12,.16,.01,.27,0,.3,0,.03,0,.06-.02,.06-.03,0-.02-.03-.02-.06-.02"/><path class="cls-3" d="M1.26,36.45s-.02,0-.05,.01H.16s-.06-.03-.08-.03c-.01,0-.02,.01-.02,.04,0,.02-.04,.23-.04,.23H.02s0,.02,.02,.02c0,0,.02,0,.02-.01H.06s0,0,0,0c0-.02,.01-.05,.03-.08,.03-.04,.07-.05,.18-.06h.27s0,1.12,0,1.21c0,.06-.02,.1-.05,.11-.02,0-.04,0-.07,0-.02,0-.03,0-.03,.01,0,.01,.01,.02,.04,.02H.95s.04,0,.04-.02c0,0-.01-.01-.03-.01-.03,0-.07,0-.09,0-.05,0-.07-.05-.07-.1,0-.08,0-1.21,0-1.21h.23c.16,0,.21,.06,.22,.11v.04s.01,.02,.02,.02c.01,0,.02,0,.02-.02,0,0,0-.21,0-.24,0-.03,0-.04-.02-.04"/><path class="cls-3" d="M15.09,36.45s-.02,0-.05,.01h-1.05s-.07-.03-.08-.03c-.01,0-.02,.01-.02,.04,0,.02-.04,.23-.04,.23h0s0,0,0,0c0,.01,0,.02,.02,.02,0,0,.02,0,.02-.01h0s.02-.05,.03-.08c.03-.04,.07-.05,.18-.06h.28s0,1.12-.01,1.21c0,.06-.01,.1-.05,.11-.02,0-.04,0-.07,0-.02,0-.03,0-.03,.01,0,.01,.01,.02,.04,.02h.52s.03,0,.03-.02c0,0,0-.01-.03-.01-.03,0-.07,0-.09,0-.06,0-.07-.05-.07-.1,0-.08,0-1.21,0-1.21h.23c.16,0,.21,.06,.22,.11v.04s.01,.02,.02,.02c.01,0,.02,0,.02-.02,0,0,0-.21,0-.24,0-.03,0-.04-.02-.04"/><path class="cls-3" d="M21.4,35.96s-.03,.01-.07,.02h-1.4c-.06,0-.09-.04-.11-.04-.02,0-.02,.02-.03,.05,0,.03-.06,.31-.06,.31h0s0,0,0,0c0,.01,.01,.03,.03,.03,.01,0,.02,0,.02-.02t0,0s.02-.06,.04-.1c.04-.06,.1-.07,.24-.08h.37s0,1.5-.01,1.61c0,.08-.02,.13-.07,.14-.02,0-.05,.01-.09,.01-.03,0-.04,0-.04,.02,0,.02,.02,.03,.05,.03h.7s.05,0,.05-.03c0-.01-.01-.02-.04-.02-.04,0-.09,0-.13-.01-.07,0-.09-.07-.1-.14-.01-.11-.01-1.61-.01-1.61h.31c.22,0,.28,.08,.29,.14v.05s.02,.03,.03,.03c.01,0,.03-.01,.03-.03,0,0,0-.28,0-.32,0-.04,0-.05-.02-.05"/><path class="cls-3" d="M3.98,37.66s0-.02-.02-.02c0,0-.02,0-.02,.02-.02,.08-.06,.13-.11,.15-.05,.02-.13,.02-.17,.02-.19,0-.19-.02-.2-.16,0-.06,0-.46,0-.46,0-.01,0-.02,.01-.02,.04,0,.23,0,.26,0,.07,0,.1,.04,.1,.08,0,.03,0,.05,0,.07,0,.01,.01,.02,.02,.02s.02,0,.02-.02h0s0,0,0,0l.03-.28h0s0,0,0,0c0,0-.01-.02-.02-.02,0,0-.01,0-.02,0,0,0,0,0,0,0,0,0,0,0-.01,.01-.02,.02-.04,.03-.09,.03-.04,0-.26,0-.3,0-.01,0-.01,0-.01-.02v-.49s0-.02,.01-.02c.04,0,.23,0,.26,0,.09,.01,.11,.04,.12,.07,0,.02,0,.06,0,.08,0,.01,0,.02,.02,.02s.02,0,.02-.02c0-.03,.02-.25,.02-.26,0-.01,0-.02-.01-.02,0,0-.02,0-.03,0-.01,0-.04,0-.08,0h-.73s-.04,0-.04,.02c0,.01,.01,.02,.03,.02,.03,0,.06,0,.07,0,.06,.01,.08,.04,.08,.11,0,.06,0,1.09,0,1.17,0,.06-.02,.1-.05,.11-.02,0-.04,0-.07,0-.02,0-.03,0-.03,.02,0,.01,.01,.02,.04,.02h.75c.07,0,.09,0,.1-.04,0-.04,.03-.23,.03-.23h0Z"/><path class="cls-3" d="M9.92,36.5s.06,0,.07,0c.06,.01,.08,.05,.08,.11,0,.06,0,1.09,0,1.17,0,.06-.02,.1-.05,.11-.02,0-.04,0-.07,0-.02,0-.03,0-.03,.02,0,.01,.01,.02,.04,.02h.75c.07,0,.09,0,.1-.04,0-.04,.03-.23,.03-.23h0s0,0,0,0c0-.01,0-.02-.02-.02s-.02,0-.02,.02c-.02,.08-.06,.13-.11,.15-.05,.02-.13,.02-.17,.02-.19,0-.19-.02-.2-.16,0-.06,0-.46,0-.46,0-.01,0-.02,.01-.02,.04,0,.23,0,.26,0,.07,0,.09,.04,.1,.08,0,.03,0,.05,0,.07,0,.01,0,.02,.02,.02,.01,0,.02,0,.02-.02h0s.03-.29,.03-.29h0s0-.02-.02-.02c0,0-.01,0-.02,0,0,0,0,0,0,0h0s0,0,0,.01c-.02,.02-.05,.03-.09,.03-.04,0-.26,0-.3,0-.01,0-.01,0-.01-.02v-.49s0-.02,.01-.02c.04,0,.23,0,.26,0,.09,.01,.11,.04,.12,.07,.01,.02,0,.06,0,.08,0,.01,0,.02,.02,.02,.01,0,.02,0,.02-.02,0-.03,.02-.25,.02-.26,0-.01,0-.02-.01-.02s-.02,0-.03,0c-.01,0-.04,0-.08,0h-1.12s-.05,0-.05,.02,.02,.02,.03,.02c.02,0,.05,0,.07,0,.02,0,.02,.02,.02,.04,0,.02,0,.05-.02,.07-.04,.13-.29,.76-.37,.97h0l-.32-.89c-.03-.07-.04-.12-.04-.15,0-.02,0-.03,.02-.04,.02-.01,.04-.01,.07-.01,.02,0,.03,0,.03-.02,0-.01-.02-.02-.04-.02h-1.45s-.05,0-.05,.02c0,.01,0,.02,.03,.02,.03,0,.07,0,.1,.01,.05,.02,.06,.06,.06,.18l.02,.88h0s-.96-1.08-.98-1.1c-.03-.04-.05-.06-.07-.06-.02,0-.02,.03-.02,.07l-.02,1.19c0,.17-.01,.23-.06,.24-.02,0-.06,0-.08,0-.02,0-.03,0-.03,.02,0,.02,.02,.02,.04,.02h.43s.04,0,.04-.02c0-.01-.01-.02-.03-.02-.03,0-.06,0-.1-.01-.04-.02-.06-.07-.06-.22l-.02-.85h0s.87,1.01,.99,1.12c.02,.02,.04,.04,.06,.04,.02,0,.02-.02,.02-.06l.02-1.26c0-.11,.02-.15,.07-.17,.02,0,.05,0,.07,0,.02,0,.06,0,.08,0,.04,0,.06,.04,.06,.11,0,.06,0,1.1,0,1.18,0,.06-.02,.09-.05,.1-.02,0-.04,0-.07,0-.02,0-.03,0-.03,.02,0,.01,.01,.02,.04,.02h.52s.03,0,.03-.02c0,0-.01-.02-.03-.02-.03,0-.07,0-.09,0-.06,0-.07-.04-.07-.1,0-.08,0-1.12,0-1.18,0-.07,.02-.1,.07-.11,.02,0,.04,0,.05,0,.02,0,.04,0,.06,0,.07,.02,.1,.04,.14,.15l.47,1.19c.03,.09,.05,.12,.07,.12,.03,0,.04-.03,.09-.14,.04-.1,.39-.94,.47-1.12,.05-.12,.08-.16,.1-.18,.03-.02,.07-.02,.09-.02"/><path class="cls-3" d="M18.88,37.2s.23,0,.26,0c.07,0,.09,.04,.1,.08,0,.03,0,.05,0,.07,0,.01,.01,.02,.02,.02,0,0,.02,0,.02-.02h0s0,0,0,0l.03-.28h0s0-.02-.02-.02c0,0-.01,0-.02,0,0,0,0,0,0,0,0,0,0,0,0,.01-.02,.02-.05,.03-.09,.03-.04,0-.26,0-.3,0-.01,0-.01,0-.01-.02v-.49s0-.03,.02-.03h.28c.07,0,.1,.04,.12,.07,.01,.03,.01,.07,.01,.08,0,.01,0,.02,.02,.02,.01,0,.02,0,.02-.02,0,0,0,0,0,0,0,0,.02-.24,.02-.25,0-.01,0-.02-.01-.02,0,0-.02,0-.03,.01-.02,0-.04,0-.08,0h-.76s-.04,0-.04,.02c0,.01,.01,.02,.03,.02,.03,0,.06,0,.07,0,.06,.01,.08,.04,.08,.11,0,.06,0,1.09,0,1.17,0,.06-.02,.1-.05,.11-.02,0-.04,0-.07,0-.02,0-.03,0-.03,.02,0,.02,.01,.02,.04,.02h.52s.04,0,.04-.02c0,0,0-.02-.03-.02s-.07,0-.09,0c-.05,0-.07-.05-.07-.11,0-.08,0-.57,0-.57,0-.01,0-.02,.01-.02"/><path class="cls-3" d="M12.76,37.05l-.05-.04c-.15-.12-.2-.19-.2-.28,0-.12,.08-.2,.22-.2,.12,0,.17,.06,.2,.09,.04,.05,.05,.11,.05,.13,0,0,0,.01,0,.02,0,0,0,0,0,0,0,0,0,0,0,0h0s0,0,.01,0c.01,0,.02-.01,.02-.02v-.26s0-.01,0-.01c0-.01,0-.02-.03-.02-.05-.01-.13-.03-.25-.03-.26,0-.43,.15-.43,.37,0,.16,.07,.29,.28,.46l.08,.07c.15,.12,.18,.22,.18,.31,0,.1-.08,.22-.25,.22-.12,0-.22-.05-.26-.2,0-.03-.02-.07-.02-.1,0,0,0,0,0-.02,0-.01,0-.02-.02-.02s-.02,0-.02,.02v.29s0,.05,.03,.07c.08,.04,.16,.05,.27,.05,.1,0,.2-.02,.29-.08,.13-.09,.17-.23,.17-.34,0-.18-.08-.32-.3-.5"/></g></svg>